# xmcd CD database file
#
# Track frame offsets:
#	150
#	11635
#	24631
#	38554
#	56444
#	69791
#	85461
#	101791
#	118346
#	127732
#	140220
#	150041
#	171218
#	194372
#	205142
#	215312
#	235032
#	246594
#
# Disc length: 3490 seconds
#
# Revision: 0
# Processed by: cddbd v1.5.2PL0 Copyright (c) Steve Scherf et al.
# Submitted via: CDex 1.51
#
DISCID=f40da012
DTITLE=Herrn Stumpfes Zieh and Zupf Kapelle - Henderscheviersche
DYEAR=2008
DGENRE=Jazz
TTITLE0=Mamas schlagen
TTITLE1=Wenn du kommsch
TTITLE2=Nuhjah, Nuhjah
TTITLE3=Shuk Mi
TTITLE4=Hl. Antonius
TTITLE5=Volle Pulle
TTITLE6=Rentner sei
TTITLE7=Mangolds Liese
TTITLE8=Soll i dir mol was
TTITLE9=Bleede Witz
TTITLE10=Mädle got furt
TTITLE11=Mei Maurer
TTITLE12=Dag wie der
TTITLE13=Wo isch mei Glas
TTITLE14=Schreiners Gsell
TTITLE15=Wenn i heit schdirb
TTITLE16=Sonntagsausflug
TTITLE17=Wir haben eine Fahne
EXTD=YEAR: 2008
EXTT0=
EXTT1=
EXTT2=
EXTT3=
EXTT4=
EXTT5=
EXTT6=
EXTT7=
EXTT8=
EXTT9=
EXTT10=
EXTT11=
EXTT12=
EXTT13=
EXTT14=
EXTT15=
EXTT16=
EXTT17=
PLAYORDER=
